<svg width="24" height="25" viewBox="0 0 24 25" fill="none" xmlns="http://www.w3.org/2000/svg">
<path d="M21.75 12.9391C21.7469 15.322 20.8726 17.6216 19.2917 19.4047C17.7109 21.1877 15.5326 22.3312 13.1671 22.6197C13.1145 22.6257 13.0611 22.6204 13.0107 22.6042C12.9602 22.5881 12.9137 22.5614 12.8743 22.526C12.8348 22.4905 12.8034 22.4471 12.782 22.3987C12.7605 22.3502 12.7496 22.2977 12.75 22.2447V15.1891H15C15.1028 15.1893 15.2045 15.1684 15.2989 15.1276C15.3933 15.0869 15.4783 15.0271 15.5487 14.9521C15.619 14.8771 15.6732 14.7885 15.7078 14.6917C15.7424 14.5949 15.7568 14.492 15.75 14.3894C15.7334 14.1965 15.6444 14.0171 15.5009 13.8872C15.3574 13.7572 15.1701 13.6865 14.9765 13.6891H12.75V11.4391C12.75 11.0412 12.908 10.6597 13.1893 10.3784C13.4706 10.0971 13.8521 9.93906 14.25 9.93906H15.75C15.8528 9.93929 15.9545 9.91837 16.0489 9.87761C16.1433 9.83685 16.2283 9.77712 16.2987 9.70213C16.369 9.62713 16.4232 9.53848 16.4578 9.44167C16.4924 9.34486 16.5068 9.24197 16.5 9.13938C16.4834 8.94619 16.3941 8.76648 16.2502 8.63651C16.1063 8.50654 15.9185 8.43598 15.7246 8.43906H14.25C13.4543 8.43906 12.6912 8.75513 12.1286 9.31774C11.566 9.88035 11.25 10.6434 11.25 11.4391V13.6891H8.99996C8.89714 13.6888 8.79538 13.7098 8.70099 13.7505C8.60659 13.7913 8.52159 13.851 8.45126 13.926C8.38092 14.001 8.32676 14.0896 8.29213 14.1865C8.2575 14.2833 8.24315 14.3862 8.24996 14.4888C8.26655 14.6819 8.35579 14.8616 8.49968 14.9916C8.64357 15.1216 8.8314 15.1921 9.02527 15.1891H11.25V22.2466C11.2503 22.2995 11.2394 22.3519 11.218 22.4003C11.1967 22.4487 11.1653 22.492 11.126 22.5274C11.0866 22.5629 11.0403 22.5896 10.9899 22.6058C10.9395 22.622 10.8863 22.6274 10.8337 22.6216C8.40498 22.3258 6.1758 21.129 4.5874 19.268C2.99901 17.407 2.16716 15.0175 2.25652 12.5725C2.44402 7.51 6.54464 3.39438 11.6109 3.1975C12.9225 3.14669 14.231 3.36095 15.4579 3.82747C16.6848 4.29398 17.8051 5.00316 18.7516 5.91259C19.6981 6.82202 20.4515 7.91302 20.9667 9.12032C21.4819 10.3276 21.7483 11.6264 21.75 12.9391Z" fill="#29B99B"/>
</svg>
