<svg width="24" height="25" viewBox="0 0 24 25" fill="none" xmlns="http://www.w3.org/2000/svg">
<path d="M16.5 3.18896H7.5C6.10807 3.19045 4.77358 3.74406 3.78933 4.7283C2.80509 5.71254 2.25149 7.04704 2.25 8.43896V17.439C2.25149 18.8309 2.80509 20.1654 3.78933 21.1496C4.77358 22.1339 6.10807 22.6875 7.5 22.689H16.5C17.8919 22.6875 19.2264 22.1339 20.2107 21.1496C21.1949 20.1654 21.7485 18.8309 21.75 17.439V8.43896C21.7485 7.04704 21.1949 5.71254 20.2107 4.7283C19.2264 3.74406 17.8919 3.19045 16.5 3.18896ZM12 17.439C11.11 17.439 10.24 17.175 9.49993 16.6806C8.75991 16.1861 8.18314 15.4833 7.84254 14.661C7.50195 13.8388 7.41283 12.934 7.58647 12.0611C7.7601 11.1881 8.18868 10.3863 8.81802 9.75698C9.44736 9.12765 10.2492 8.69906 11.1221 8.52543C11.995 8.3518 12.8998 8.44091 13.7221 8.78151C14.5443 9.1221 15.2471 9.69888 15.7416 10.4389C16.2361 11.1789 16.5 12.0489 16.5 12.939C16.4988 14.1321 16.0243 15.2759 15.1806 16.1196C14.337 16.9632 13.1931 17.4377 12 17.439ZM17.625 8.43896C17.4025 8.43896 17.185 8.37298 17 8.24937C16.815 8.12575 16.6708 7.95005 16.5856 7.74448C16.5005 7.53892 16.4782 7.31272 16.5216 7.09449C16.565 6.87626 16.6722 6.6758 16.8295 6.51847C16.9868 6.36114 17.1873 6.25399 17.4055 6.21058C17.6238 6.16717 17.85 6.18945 18.0555 6.2746C18.2611 6.35975 18.4368 6.50394 18.5604 6.68895C18.684 6.87395 18.75 7.09146 18.75 7.31396C18.75 7.61233 18.6315 7.89848 18.4205 8.10946C18.2095 8.32044 17.9234 8.43896 17.625 8.43896ZM15 12.939C15 13.5323 14.8241 14.1123 14.4944 14.6057C14.1648 15.099 13.6962 15.4835 13.1481 15.7106C12.5999 15.9377 11.9967 15.9971 11.4147 15.8813C10.8328 15.7656 10.2982 15.4798 9.87868 15.0603C9.45912 14.6407 9.1734 14.1062 9.05764 13.5242C8.94189 12.9423 9.0013 12.3391 9.22836 11.7909C9.45542 11.2427 9.83994 10.7742 10.3333 10.4446C10.8266 10.1149 11.4067 9.93896 12 9.93896C12.7956 9.93896 13.5587 10.255 14.1213 10.8176C14.6839 11.3803 15 12.1433 15 12.939Z" fill="#29B99B"/>
</svg>
