<svg width="24" height="25" viewBox="0 0 24 25" fill="none" xmlns="http://www.w3.org/2000/svg">
<g clip-path="url(#clip0_63_282)">
<path d="M21.6938 5.0959C21.6938 5.0959 21.6938 5.10528 21.6938 5.10996L16.2375 23.1043C16.155 23.3966 15.985 23.6566 15.7504 23.8495C15.5157 24.0424 15.2278 24.1589 14.925 24.1834C14.8819 24.1872 14.8388 24.189 14.7957 24.189C14.512 24.1899 14.234 24.1096 13.9944 23.9576C13.7549 23.8056 13.5638 23.5883 13.4438 23.3312L10.0313 16.3281C9.99715 16.2579 9.98575 16.1788 9.99869 16.1019C10.0116 16.0249 10.0483 15.9539 10.1035 15.8987L15.5335 10.4687C15.6682 10.3269 15.7422 10.1381 15.7397 9.94253C15.7372 9.74696 15.6584 9.56011 15.5201 9.4218C15.3818 9.2835 15.1949 9.2047 14.9993 9.2022C14.8038 9.19969 14.615 9.27369 14.4732 9.4084L9.04036 14.8384C8.9852 14.8936 8.91419 14.9303 8.83722 14.9432C8.76025 14.9561 8.68116 14.9447 8.61098 14.9106L1.6013 11.499C1.32719 11.3675 1.09951 11.1558 0.948436 10.892C0.79736 10.6282 0.730017 10.3247 0.755332 10.0217C0.780647 9.71875 0.897424 9.43063 1.09019 9.19553C1.28295 8.96044 1.5426 8.78947 1.83473 8.70528L19.8291 3.24903H19.8432C20.0994 3.17705 20.3701 3.17452 20.6276 3.24171C20.8851 3.30891 21.1201 3.44339 21.3085 3.63138C21.4968 3.81937 21.6318 4.05408 21.6995 4.31144C21.7672 4.56881 21.7653 4.83955 21.6938 5.0959Z" fill="#29B99B"/>
</g>
<defs>
<clipPath id="clip0_63_282">
<rect width="24" height="24" fill="white" transform="translate(0 0.938965)"/>
</clipPath>
</defs>
</svg>
