<svg width="24" height="25" viewBox="0 0 24 25" fill="none" xmlns="http://www.w3.org/2000/svg">
<path d="M21.7388 17.3528C21.5716 18.6231 20.9477 19.7892 19.9837 20.6331C19.0196 21.4771 17.7813 21.9413 16.5 21.939C9.05626 21.939 3.00001 15.8828 3.00001 8.43902C2.99771 7.15773 3.4619 5.91942 4.30588 4.95536C5.14986 3.9913 6.31592 3.36743 7.58626 3.20027C7.9075 3.16105 8.2328 3.22676 8.51362 3.38762C8.79444 3.54847 9.0157 3.79583 9.14438 4.09277L11.1244 8.51308V8.52433C11.2229 8.75163 11.2636 8.99979 11.2428 9.24665C11.222 9.49351 11.1404 9.73138 11.0053 9.93902C10.9884 9.96433 10.9706 9.98777 10.9519 10.0112L9.00001 12.325C9.7022 13.7518 11.1947 15.2312 12.6403 15.9353L14.9222 13.9937C14.9446 13.9749 14.9681 13.9573 14.9925 13.9412C15.2 13.8028 15.4387 13.7184 15.687 13.6955C15.9353 13.6725 16.1854 13.7119 16.4147 13.81L16.4269 13.8156L20.8434 15.7946C21.1409 15.9229 21.3889 16.1439 21.5503 16.4248C21.7116 16.7057 21.7778 17.0312 21.7388 17.3528Z" fill="#29B99B"/>
</svg>
