<svg width="24" height="24" viewBox="0 0 24 24" fill="none" xmlns="http://www.w3.org/2000/svg">
<path d="M5.25 11.25H20.25C20.5962 11.2501 20.9318 11.1305 21.1999 10.9114C21.4679 10.6923 21.652 10.3873 21.7207 10.0479C21.7895 9.70863 21.7388 9.35598 21.5772 9.04981C21.4156 8.74364 21.153 8.50279 20.8341 8.36812L20.8209 8.3625L5.8275 2.3625C5.5993 2.2673 5.35111 2.23 5.10501 2.2539C4.85891 2.2778 4.62253 2.36216 4.41691 2.49949C4.21129 2.63682 4.04281 2.82284 3.92646 3.04102C3.8101 3.25919 3.74949 3.50274 3.75 3.75V9.75C3.75 10.1478 3.90804 10.5294 4.18934 10.8107C4.47065 11.092 4.85218 11.25 5.25 11.25ZM5.25 3.75L5.26407 3.75563L20.25 9.75H5.25V3.75ZM20.25 12.75H5.25C4.85218 12.75 4.47065 12.908 4.18934 13.1893C3.90804 13.4706 3.75 13.8522 3.75 14.25V20.25C3.74986 20.497 3.81071 20.7402 3.92714 20.958C4.04357 21.1758 4.21199 21.3615 4.41743 21.4986C4.62288 21.6357 4.85899 21.7199 5.10481 21.7438C5.35064 21.7677 5.59856 21.7306 5.82657 21.6356L20.82 15.6356L20.8331 15.63C21.1508 15.4947 21.4121 15.2538 21.5729 14.9482C21.7336 14.6425 21.784 14.2908 21.7154 13.9523C21.6469 13.6139 21.4637 13.3094 21.1967 13.0904C20.9297 12.8713 20.5953 12.7511 20.25 12.75ZM5.26407 20.2434L5.25 20.25V14.25H20.25L5.26407 20.2434Z" fill="black"/>
</svg>
