<svg width="24" height="25" viewBox="0 0 24 25" fill="none" xmlns="http://www.w3.org/2000/svg">
<path d="M20.1564 21.5499C20.0918 21.6675 19.9968 21.7657 19.8814 21.8341C19.766 21.9025 19.6343 21.9388 19.5001 21.939H15.0001C14.8739 21.9389 14.7497 21.907 14.6391 21.8462C14.5285 21.7854 14.435 21.6977 14.3673 21.5912L10.5714 15.6258L5.05512 21.6933C4.92065 21.8378 4.73466 21.9234 4.53748 21.9317C4.34029 21.9399 4.14781 21.8701 4.00176 21.7374C3.8557 21.6046 3.76785 21.4197 3.75725 21.2226C3.74665 21.0255 3.81415 20.8322 3.94512 20.6846L9.73606 14.3096L3.86731 5.09209C3.79503 4.97869 3.75457 4.84795 3.75016 4.71355C3.74575 4.57915 3.77756 4.44603 3.84226 4.32814C3.90695 4.21025 4.00215 4.11193 4.11789 4.04346C4.23363 3.97499 4.36565 3.9389 4.50012 3.93896H9.00012C9.12635 3.939 9.25052 3.9709 9.36114 4.0317C9.47176 4.0925 9.56524 4.18023 9.63293 4.28678L13.4289 10.2521L18.9451 4.18459C19.0796 4.04014 19.2656 3.95451 19.4628 3.94627C19.6599 3.93803 19.8524 4.00785 19.9985 4.14058C20.1445 4.27331 20.2324 4.45826 20.243 4.65533C20.2536 4.8524 20.1861 5.04571 20.0551 5.19334L14.2642 11.5637L20.1329 20.7868C20.2048 20.9002 20.2449 21.0309 20.249 21.1651C20.2531 21.2994 20.2211 21.4323 20.1564 21.5499Z" fill="#29B99B"/>
</svg>
